<svg width="128" height="128" viewBox="0 0 128 128" fill="none" xmlns="http://www.w3.org/2000/svg">
<path d="M61.8467 14.0359C59.3781 14.8698 56.9551 15.9585 54.612 17.3113C35.4835 28.3551 28.9296 52.8147 39.9734 71.9432C51.0173 91.0717 75.4768 97.6256 94.6053 86.5817C101.008 82.8849 106.003 77.6848 109.399 71.6846C107.146 86.1096 98.6241 99.4257 84.9958 107.294C61.0852 121.099 30.5108 112.906 16.706 88.9958C2.90115 65.0852 11.0935 34.5108 35.0042 20.706C43.4635 15.822 52.7569 13.6913 61.8467 14.0359Z" fill="#60A5FA"/>
<path d="M64.9693 31.8171L75.1322 28.7241L78.2253 18.5611L81.3184 28.7241L91.4813 31.8171L81.3184 34.9102L78.2253 45.0732L75.1322 34.9102L64.9693 31.8171Z" fill="#60A5FA"/>
<path d="M91.2149 49.3142L101.378 46.2211L104.471 36.0582L107.564 46.2211L117.727 49.3142L107.564 52.4073L104.471 62.5702L101.378 52.4073L91.2149 49.3142Z" fill="#60A5FA"/>
</svg>
