<svg width="128" height="128" viewBox="0 0 128 128" fill="none" xmlns="http://www.w3.org/2000/svg">
<path d="M43.0368 19.0173C41.8447 19.42 40.6746 19.9458 39.5432 20.599C30.306 25.9321 27.1411 37.7437 32.4742 46.9808C37.8073 56.218 49.6188 59.3829 58.856 54.0498C61.9481 52.2646 64.3597 49.7535 66 46.856C64.912 53.8218 60.7967 60.2522 54.2156 64.0518C42.6691 70.7182 27.9047 66.762 21.2383 55.2156C14.572 43.6691 18.5281 28.9047 30.0745 22.2383C34.1596 19.8798 38.6473 18.8509 43.0368 19.0173Z" fill="white"/>
<path d="M35.6782 107.115C22.1694 107.115 11.2184 96.1639 11.2184 82.6552C11.2184 69.1464 22.1694 58.1954 35.6782 58.1954C38.6073 58.1954 41.4161 58.7103 44.0192 59.6545C49.155 47.0924 61.4979 38.2414 75.908 38.2414C94.9269 38.2414 110.345 53.6593 110.345 72.6782C110.345 73.516 110.315 74.3468 110.256 75.1697C116.007 77.8179 120 83.6324 120 90.3793C120 99.6222 112.507 107.115 103.264 107.115H35.6782Z" fill="white"/>
</svg>
