<svg width="128" height="128" viewBox="0 0 128 128" fill="none" xmlns="http://www.w3.org/2000/svg">
<path fill-rule="evenodd" clip-rule="evenodd" d="M65.9493 12.1805C65.8971 13.193 65.0337 13.9666 64.0198 13.9666C63.0059 13.9666 62.1424 13.193 62.0902 12.1805L61.8902 8.3011C61.8263 7.06215 62.7792 6 64.0198 6C65.2604 6 66.2133 7.06215 66.1494 8.3011L65.9493 12.1805ZM33.6589 31.4883C34.1667 30.6109 33.9293 29.4783 33.0796 28.9254L29.8292 26.8103C28.7862 26.1316 27.3869 26.421 26.7636 27.498C26.1404 28.575 26.5836 29.9387 27.6918 30.5045L31.1458 32.2679C32.0486 32.7289 33.1512 32.3657 33.6589 31.4883ZM33.6589 66.5515C33.1512 65.6741 32.0486 65.3108 31.1458 65.7718L27.6918 67.5352C26.5836 68.101 26.1404 69.4647 26.7636 70.5417C27.3869 71.6187 28.7862 71.9082 29.8292 71.2295L33.0796 69.1143C33.9293 68.5614 34.1667 67.4289 33.6589 66.5515ZM62.0902 85.8593C62.1425 84.8467 63.0059 84.0731 64.0198 84.0731C65.0337 84.0731 65.8971 84.8467 65.9493 85.8593L66.1494 89.7386C66.2133 90.9776 65.2604 92.0397 64.0198 92.0397C62.7792 92.0397 61.8263 90.9776 61.8902 89.7386L62.0902 85.8593ZM94.3806 66.5515C93.8729 67.4289 94.1103 68.5614 94.9599 69.1143L98.2104 71.2295C99.2534 71.9082 100.653 71.6187 101.276 70.5417C101.899 69.4647 101.456 68.101 100.348 67.5352L96.8938 65.7718C95.991 65.3108 94.8884 65.6741 94.3806 66.5515ZM94.3806 31.4883C94.8884 32.3657 95.9909 32.7289 96.8938 32.2679L100.348 30.5045C101.456 29.9387 101.899 28.575 101.276 27.498C100.653 26.421 99.2534 26.1316 98.2104 26.8103L94.9599 28.9254C94.1103 29.4783 93.8729 30.6109 94.3806 31.4883Z" fill="white"/>
<path fill-rule="evenodd" clip-rule="evenodd" d="M47.2711 16.1512C47.7321 17.0542 47.3712 18.1559 46.4931 18.6629C45.6151 19.1698 44.4805 18.9316 43.929 18.0808L41.816 14.8212C41.1412 13.7802 41.4354 12.3839 42.5098 11.7636C43.5842 11.1433 44.9405 11.5866 45.5046 12.6916L47.2711 16.1512ZM28.9607 49.0175C28.9617 48.0038 28.1898 47.1416 27.1775 47.0876L23.305 46.8811C22.0624 46.8148 20.9953 47.7651 20.994 49.0095C20.9928 50.2538 22.0584 51.2132 23.3011 51.1491L27.174 50.9493C28.1864 50.897 28.9596 50.0312 28.9607 49.0175ZM46.4923 79.3831C45.6138 78.8771 44.4774 79.1138 43.9259 79.9644L41.8164 83.2186C41.1396 84.2627 41.4376 85.6653 42.5159 86.2864C43.5941 86.9075 44.9507 86.4585 45.5146 85.3492L47.272 81.8922C47.7314 80.9886 47.3707 79.8891 46.4923 79.3831ZM80.7684 81.8885C80.3073 80.9855 80.6683 79.8838 81.5463 79.3768C82.4244 78.8699 83.559 79.1081 84.1105 79.9589L86.2234 83.2185C86.8982 84.2595 86.604 85.6558 85.5297 86.2761C84.4553 86.8964 83.0989 86.4531 82.5348 85.3481L80.7684 81.8885ZM99.0788 49.0222C99.0778 50.036 99.8496 50.8981 100.862 50.9521L104.734 51.1586C105.977 51.2249 107.044 50.2746 107.045 49.0302C107.047 47.7859 105.981 46.8265 104.738 46.8906L100.865 47.0904C99.8531 47.1427 99.0798 48.0085 99.0788 49.0222ZM81.5472 18.6566C82.4256 19.1626 83.5621 18.9259 84.1135 18.0753L86.223 14.8211C86.8999 13.777 86.6018 12.3744 85.5236 11.7533C84.4453 11.1322 83.0887 11.5812 82.5248 12.6905L80.7675 16.1475C80.3081 17.0511 80.6688 18.1506 81.5472 18.6566Z" fill="white"/>
<path d="M64.0197 19.5433C80.2991 19.5433 93.4962 32.7404 93.4962 49.0199C93.4962 65.2993 80.2991 78.4965 64.0197 78.4965C47.7402 78.4965 34.5431 65.2993 34.5431 49.0199C34.5431 32.7404 47.7402 19.5433 64.0197 19.5433Z" fill="white"/>
<path d="M21 122V122C42.1777 92.6959 85.8223 92.6959 107 122V122" stroke="white" stroke-width="4"/>
</svg>
