<svg width="128" height="128" viewBox="0 0 128 128" fill="none" xmlns="http://www.w3.org/2000/svg">
<path d="M64.7133 34.3404C105.092 34.3404 105.092 75.6121 105.092 75.6121C105.092 75.6121 80.4823 75.6121 64.7133 75.6121C48.9444 75.6121 24.3345 75.6121 24.3345 75.6121C24.3345 75.6121 24.3345 34.3404 64.7133 34.3404Z" fill="white"/>
<rect x="14" y="83.683" width="100" height="4.46429" rx="2.23214" fill="white"/>
<rect x="35.4285" y="96.9118" width="58.9286" height="4.46429" rx="2.23214" fill="white"/>
<rect x="53.2856" y="110.305" width="22.3214" height="4.46429" rx="2.23214" fill="white"/>
<path fill-rule="evenodd" clip-rule="evenodd" d="M23.5523 42.9856C24.6646 43.7067 24.9761 45.19 24.3133 46.338C23.6505 47.486 22.2101 47.9579 21.0295 47.3551L16.5063 45.0457C15.0617 44.3081 14.482 42.5348 15.293 41.1302C16.104 39.7255 17.9296 39.3409 19.2906 40.2231L23.5523 42.9856ZM103.7 46.3369C104.362 47.4854 105.799 47.9569 106.981 47.3563L111.5 45.0587C112.951 44.3214 113.538 42.5478 112.726 41.1381C111.914 39.7283 110.08 39.3387 108.715 40.2237L104.46 42.9817C103.348 43.7026 103.039 45.1885 103.7 46.3369ZM63.9995 23.4157C65.3249 23.4144 66.4569 22.4035 66.5252 21.0799L66.7865 16.0164C66.8703 14.3916 65.616 12.9984 63.9891 13C62.3622 13.0016 61.1197 14.3968 61.2064 16.0214L61.4764 21.0844C61.547 22.4079 62.6742 23.4171 63.9995 23.4157Z" fill="white"/>
</svg>
