<svg width="128" height="128" viewBox="0 0 128 128" fill="none" xmlns="http://www.w3.org/2000/svg">
<path fill-rule="evenodd" clip-rule="evenodd" d="M44.5406 25.7983C45.0764 26.8478 44.6569 28.1282 43.6364 28.7174C42.6159 29.3066 41.2972 29.0297 40.6562 28.0409L38.2005 24.2524C37.4162 23.0425 37.7581 21.4196 39.0068 20.6987C40.2555 19.9777 41.8319 20.4931 42.4876 21.7773L44.5406 25.7983ZM23.2593 63.9972C23.2604 62.819 22.3633 61.817 21.1868 61.7542L16.6859 61.5141C15.2417 61.4371 14.0015 62.5416 14 63.9879C13.9986 65.4341 15.2371 66.5492 16.6814 66.4747L21.1827 66.2424C22.3594 66.1817 23.2581 65.1754 23.2593 63.9972ZM43.6354 99.2897C42.6145 98.7017 41.2936 98.9768 40.6527 99.9654L38.2009 103.748C37.4142 104.961 37.7606 106.591 39.0138 107.313C40.2671 108.035 41.8437 107.513 42.4991 106.224L44.5417 102.206C45.0756 101.156 44.6564 99.8778 43.6354 99.2897ZM83.473 102.202C82.9371 101.152 83.3566 99.8717 84.3772 99.2825C85.3977 98.6933 86.7163 98.9702 87.3573 99.959L89.8131 103.747C90.5974 104.957 90.2555 106.58 89.0068 107.301C87.7581 108.022 86.1817 107.507 85.526 106.223L83.473 102.202ZM104.754 64.0027C104.753 65.1809 105.65 66.1829 106.827 66.2457L111.328 66.4857C112.772 66.5628 114.012 65.4583 114.014 64.012C114.015 62.5658 112.776 61.4507 111.332 61.5252L106.831 61.7575C105.654 61.8182 104.755 62.8245 104.754 64.0027ZM84.3781 28.7102C85.3991 29.2982 86.72 29.0231 87.3608 28.0345L89.8126 24.2524C90.5993 23.0388 90.2529 21.4086 88.9997 20.6868C87.7465 19.9649 86.1698 20.4868 85.5144 21.776L83.4719 25.7939C82.938 26.8442 83.3572 28.1221 84.3781 28.7102Z" fill="white"/>
<path d="M64.0067 32.2408C81.5468 32.2408 95.766 46.4599 95.766 64C95.766 81.5402 81.5469 95.7593 64.0067 95.7593C46.4665 95.7593 32.2474 81.5402 32.2474 64C32.2474 46.4599 46.4665 32.2408 64.0067 32.2408Z" stroke="white" stroke-width="5" stroke-linejoin="round"/>
<path d="M57.6648 54.6061H61.7651V67.2008C61.7651 68.6149 61.4274 69.8523 60.7519 70.9129C60.0827 71.9735 59.1452 72.8005 57.9394 73.3939C56.7336 73.9811 55.3289 74.2746 53.7254 74.2746C52.1155 74.2746 50.7077 73.9811 49.5019 73.3939C48.2961 72.8005 47.3586 71.9735 46.6894 70.9129C46.0202 69.8523 45.6856 68.6149 45.6856 67.2008V54.6061H49.786V66.8504C49.786 67.589 49.947 68.2456 50.2689 68.8201C50.5972 69.3946 51.0581 69.846 51.6515 70.1742C52.2449 70.5025 52.9362 70.6667 53.7254 70.6667C54.5208 70.6667 55.2121 70.5025 55.7992 70.1742C56.3927 69.846 56.8504 69.3946 57.1723 68.8201C57.5006 68.2456 57.6648 67.589 57.6648 66.8504V54.6061ZM68.6425 54.6061L73.33 69.3409H73.5099L78.2069 54.6061H82.7524L76.0668 74H70.7827L64.0876 54.6061H68.6425Z" fill="white"/>
</svg>
