<svg width="128" height="128" viewBox="0 0 128 128" fill="none" xmlns="http://www.w3.org/2000/svg">
<path fill-rule="evenodd" clip-rule="evenodd" d="M64 109C88.8528 109 109 88.8528 109 64C109 39.1472 88.8528 19 64 19C39.1472 19 19 39.1472 19 64C19 88.8528 39.1472 109 64 109ZM78.3668 80.9726C79.3083 81.914 80.8347 81.914 81.7761 80.9726C82.7175 80.0311 82.7175 78.5047 81.7761 77.5633L54.5522 50.3393L70.4286 50.3393C71.76 50.3393 72.8393 49.26 72.8393 47.9286C72.8393 46.5972 71.76 45.5179 70.4286 45.5179L48.7322 45.5179C47.4008 45.5179 46.3215 46.5972 46.3215 47.9286L46.3215 69.625C46.3215 70.9564 47.4008 72.0358 48.7322 72.0358C50.0636 72.0358 51.1429 70.9564 51.1429 69.625L51.1429 53.7486L78.3668 80.9726Z" fill="white"/>
</svg>
