<svg width="128" height="128" viewBox="0 0 128 128" fill="none" xmlns="http://www.w3.org/2000/svg">
<path fill-rule="evenodd" clip-rule="evenodd" d="M76.5 30H103.5C105.157 30 106.5 31.3431 106.5 33V60C106.5 61.6569 105.157 63 103.5 63C101.843 63 100.5 61.6569 100.5 60V40.2426L69.1213 71.6213C67.9497 72.7929 66.0503 72.7929 64.8787 71.6213L58.5 65.2426L27.1213 96.6213C25.9497 97.7929 24.0503 97.7929 22.8787 96.6213C21.7071 95.4498 21.7071 93.5503 22.8787 92.3787L56.3787 58.8787C57.5502 57.7071 59.4497 57.7071 60.6213 58.8787L67 65.2574L96.2574 36H76.5C74.8431 36 73.5 34.6569 73.5 33C73.5 31.3431 74.8431 30 76.5 30Z" fill="white"/>
</svg>
